<svg xmlns="http://www.w3.org/2000/svg" width="1600" height="900" viewBox="0 0 1600 900">
  <defs>
    <linearGradient id="bg" x1="0" y1="0" x2="1" y2="1">
      <stop offset="0" stop-color="#1e1b4b"/>
      <stop offset="0.5" stop-color="#312e81"/>
      <stop offset="1" stop-color="#4338ca"/>
    </linearGradient>
    <radialGradient id="glow" cx="0.75" cy="0.25" r="0.8">
      <stop offset="0" stop-color="#818cf8" stop-opacity="0.55"/>
      <stop offset="1" stop-color="#818cf8" stop-opacity="0"/>
    </radialGradient>
    <linearGradient id="card" x1="0" y1="0" x2="0" y2="1">
      <stop offset="0" stop-color="#ffffff" stop-opacity="0.14"/>
      <stop offset="1" stop-color="#ffffff" stop-opacity="0.05"/>
    </linearGradient>
  </defs>
  <rect width="1600" height="900" fill="url(#bg)"/>
  <rect width="1600" height="900" fill="url(#glow)"/>
  <g stroke="#a5b4fc" stroke-opacity="0.12">
    <path d="M0 225h1600M0 450h1600M0 675h1600M400 0v900M800 0v900M1200 0v900"/>
  </g>
  <!-- dashboard mock -->
  <g transform="translate(880,180)">
    <rect width="560" height="540" rx="24" fill="url(#card)" stroke="#ffffff" stroke-opacity="0.18"/>
    <rect x="32" y="32" width="200" height="20" rx="10" fill="#c7d2fe" opacity="0.8"/>
    <rect x="32" y="72" width="130" height="12" rx="6" fill="#a5b4fc" opacity="0.5"/>
    <rect x="32" y="120" width="230" height="120" rx="16" fill="#6366f1" opacity="0.55"/>
    <rect x="298" y="120" width="230" height="120" rx="16" fill="#8b5cf6" opacity="0.45"/>
    <rect x="32" y="270" width="496" height="14" rx="7" fill="#ffffff" opacity="0.25"/>
    <rect x="32" y="304" width="420" height="14" rx="7" fill="#ffffff" opacity="0.18"/>
    <rect x="32" y="338" width="460" height="14" rx="7" fill="#ffffff" opacity="0.12"/>
    <g transform="translate(32,390)">
      <rect width="496" height="118" rx="16" fill="#ffffff" opacity="0.07"/>
      <path d="M24 90 L104 62 L184 74 L264 40 L344 52 L424 22 L472 34" stroke="#34d399" stroke-width="4" fill="none" stroke-linecap="round"/>
    </g>
  </g>
  <!-- building silhouette -->
  <g transform="translate(160,260)" fill="#c7d2fe">
    <rect x="0" y="120" width="150" height="380" rx="10" opacity="0.25"/>
    <rect x="180" y="40" width="170" height="460" rx="10" opacity="0.35"/>
    <rect x="380" y="180" width="140" height="320" rx="10" opacity="0.22"/>
    <g fill="#eef2ff" opacity="0.75">
      <rect x="205" y="80" width="28" height="28" rx="5"/><rect x="252" y="80" width="28" height="28" rx="5"/><rect x="299" y="80" width="28" height="28" rx="5"/>
      <rect x="205" y="140" width="28" height="28" rx="5"/><rect x="252" y="140" width="28" height="28" rx="5"/><rect x="299" y="140" width="28" height="28" rx="5"/>
      <rect x="205" y="200" width="28" height="28" rx="5"/><rect x="252" y="200" width="28" height="28" rx="5"/>
    </g>
  </g>
</svg>
