<svg xmlns="http://www.w3.org/2000/svg" width="1600" height="900" viewBox="0 0 1600 900">
  <defs>
    <linearGradient id="bg" x1="0" y1="0" x2="1" y2="1">
      <stop offset="0" stop-color="#022c22"/>
      <stop offset="0.5" stop-color="#064e3b"/>
      <stop offset="1" stop-color="#047857"/>
    </linearGradient>
    <radialGradient id="glow" cx="0.25" cy="0.3" r="0.8">
      <stop offset="0" stop-color="#34d399" stop-opacity="0.45"/>
      <stop offset="1" stop-color="#34d399" stop-opacity="0"/>
    </radialGradient>
    <linearGradient id="card" x1="0" y1="0" x2="0" y2="1">
      <stop offset="0" stop-color="#ffffff" stop-opacity="0.14"/>
      <stop offset="1" stop-color="#ffffff" stop-opacity="0.05"/>
    </linearGradient>
  </defs>
  <rect width="1600" height="900" fill="url(#bg)"/>
  <rect width="1600" height="900" fill="url(#glow)"/>
  <g stroke="#6ee7b7" stroke-opacity="0.12">
    <path d="M0 225h1600M0 450h1600M0 675h1600M400 0v900M800 0v900M1200 0v900"/>
  </g>
  <!-- POS terminal mock -->
  <g transform="translate(180,170)">
    <rect width="620" height="560" rx="24" fill="url(#card)" stroke="#ffffff" stroke-opacity="0.18"/>
    <rect x="32" y="32" width="240" height="20" rx="10" fill="#a7f3d0" opacity="0.85"/>
    <rect x="32" y="80" width="360" height="56" rx="12" fill="#ffffff" opacity="0.1"/>
    <!-- barcode -->
    <g transform="translate(420,80)" fill="#ecfdf5" opacity="0.9">
      <rect x="0" y="0" width="6" height="56"/><rect x="12" y="0" width="3" height="56"/><rect x="22" y="0" width="9" height="56"/><rect x="38" y="0" width="4" height="56"/><rect x="50" y="0" width="7" height="56"/><rect x="64" y="0" width="3" height="56"/><rect x="74" y="0" width="10" height="56"/><rect x="92" y="0" width="5" height="56"/><rect x="104" y="0" width="8" height="56"/><rect x="120" y="0" width="4" height="56"/><rect x="132" y="0" width="8" height="56"/><rect x="148" y="0" width="4" height="56"/>
    </g>
    <g fill="#ffffff">
      <rect x="32" y="170" width="556" height="52" rx="12" opacity="0.10"/>
      <rect x="32" y="234" width="556" height="52" rx="12" opacity="0.07"/>
      <rect x="32" y="298" width="556" height="52" rx="12" opacity="0.05"/>
    </g>
    <rect x="32" y="382" width="264" height="146" rx="16" fill="#10b981" opacity="0.55"/>
    <!-- KHQR-style block -->
    <g transform="translate(324,382)">
      <rect width="264" height="146" rx="16" fill="#ffffff" opacity="0.10"/>
      <rect x="20" y="20" width="106" height="106" rx="10" fill="#ecfdf5" opacity="0.9"/>
      <g fill="#064e3b">
        <rect x="32" y="32" width="26" height="26" rx="4"/><rect x="88" y="32" width="26" height="26" rx="4"/>
        <rect x="32" y="88" width="26" height="26" rx="4"/><rect x="70" y="70" width="14" height="14" rx="3"/>
        <rect x="92" y="92" width="20" height="20" rx="4"/>
      </g>
      <rect x="146" y="34" width="96" height="14" rx="7" fill="#a7f3d0" opacity="0.85"/>
      <rect x="146" y="62" width="76" height="10" rx="5" fill="#ffffff" opacity="0.4"/>
      <rect x="146" y="86" width="86" height="10" rx="5" fill="#ffffff" opacity="0.3"/>
    </g>
  </g>
  <!-- analytics card -->
  <g transform="translate(900,240)">
    <rect width="520" height="420" rx="24" fill="url(#card)" stroke="#ffffff" stroke-opacity="0.18"/>
    <rect x="32" y="32" width="180" height="18" rx="9" fill="#a7f3d0" opacity="0.85"/>
    <g transform="translate(32,90)">
      <rect x="0" y="150" width="52" height="130" rx="8" fill="#34d399" opacity="0.5"/>
      <rect x="72" y="110" width="52" height="170" rx="8" fill="#34d399" opacity="0.65"/>
      <rect x="144" y="60" width="52" height="220" rx="8" fill="#34d399" opacity="0.8"/>
      <rect x="216" y="130" width="52" height="150" rx="8" fill="#34d399" opacity="0.55"/>
      <rect x="288" y="30" width="52" height="250" rx="8" fill="#6ee7b7" opacity="0.9"/>
      <rect x="360" y="90" width="52" height="190" rx="8" fill="#34d399" opacity="0.7"/>
    </g>
  </g>
</svg>
